<svg xmlns="http://www.w3.org/2000/svg" xmlns:xlink="http://www.w3.org/1999/xlink" viewBox="0,0,256,256" width="64px" height="64px"><g transform="translate(-81.92,-81.92) scale(1.64,1.64)"><g fill="#000000" fill-rule="nonzero" stroke="none" stroke-width="1" stroke-linecap="butt" stroke-linejoin="miter" stroke-miterlimit="10" stroke-dasharray="" stroke-dashoffset="0" font-family="none" font-weight="none" font-size="none" text-anchor="none" style="mix-blend-mode: normal"><g transform="translate(0,0.35556) scale(3.55556,3.55556)"><path d="M42.5,14c14.375,0 15.5,1.125 15.5,15.5v13c0,14.375 -1.125,15.5 -15.5,15.5h-13c-14.375,0 -15.5,-1.125 -15.5,-15.5v-13c0,-14.375 1.125,-15.5 15.5,-15.5zM49,26.749v-0.439h-7.127l-5.009,12.854l-5.98,-12.854h-7.017v0.439l1.61,2.195c0.08,0.096 0.123,0.216 0.123,0.341v13.265c0,0.194 -0.067,0.383 -0.188,0.534l-2.412,3.018v0.398h6.933v-0.398l-2.414,-3.036c-0.121,-0.15 -0.187,-0.338 -0.187,-0.53v-11.508l7.198,15.472h1.337l0.006,-0.018l6.193,-15.89v13.054c0,0.14 -0.055,0.276 -0.155,0.376l-2.445,2.079v0.399h9.534v-0.398l-1.578,-2.079c-0.1,-0.1 -0.155,-0.235 -0.155,-0.376v-14.594c0,-0.14 0.055,-0.276 0.155,-0.376z"></path></g></g></g></svg>